<svg fill="none" height="56" viewBox="0 0 37 56" width="37" xmlns="http://www.w3.org/2000/svg"><path d="m37 21.1656v32.2116c0 1.449-1.1594 2.6228-2.5905 2.6228h-31.81905c-1.43109 0-2.59045-1.1738-2.59045-2.6228v-13.4807c0-1.4489 1.15936-2.6228 2.59045-2.6228h13.31455c1.4311 0 2.5905-1.1738 2.5905-2.6228v-13.2927c0-1.4489-1.1594-2.6228-2.5905-2.6228h-13.31455c-1.43109 0-2.59045-1.1738-2.59045-2.6227v-13.48992c0-1.44895 1.15936-2.62278 2.59045-2.62278h13.31455c1.4311 0 2.5905 1.17383 2.5905 2.62278v13.29272c0 1.4489 1.1593 2.6228 2.5904 2.6228h13.3191c1.4311 0 2.5905 1.1738 2.5905 2.6228z" fill="#000"/></svg>