<svg data-name="Layer 2" xmlns="http://www.w3.org/2000/svg" viewBox="0 0 150.34 105.89"><path d="M117.33 52.95c0-15.55-5.49-28.27-16.47-38.14C89.88 4.93 75.89 0 58.9 0S27.78 5.03 16.54 15.1C6.95 23.69 1.45 34.13.04 46.43c-.4 3.47 2.33 6.51 5.82 6.51h27.15c0 15.55 5.49 28.27 16.47 38.14 10.98 9.87 24.97 14.81 41.96 14.81s31.11-5.03 42.35-15.1c9.59-8.59 15.09-19.03 16.5-31.33.4-3.47-2.33-6.51-5.82-6.51h-27.15Zm-6.18 32.94c-4.12 6.8-9.77 10.2-16.96 10.2-8.24 0-14.94-4.41-20.1-13.24-2.48-4.23-4.36-9.09-5.65-14.57-2.11-9-10.19-15.34-19.43-15.34h-15.9c-.06-1.54-.11-3.1-.11-4.71 0-12.03 2.06-21.44 6.18-28.24 4.12-6.8 9.77-10.2 16.96-10.2 8.11 0 14.77 4.45 20 13.33 2.5 4.25 4.4 9.1 5.7 14.54 2.15 8.96 10.2 15.27 19.42 15.27h15.96c.07 1.54.11 3.1.11 4.71 0 12.03-2.06 21.44-6.18 28.24Z" style="fill:#221f20;stroke-width:0" data-name="Layer 1"/></svg>
