<svg xmlns="http://www.w3.org/2000/svg" viewBox="0 0 104.96 160.12"><path d="M49.71 105.11c.42-.34 1.95-.62 2.82-4.64.97-4.49.48-32.71.48-38.33 0-4.65-2.52-8.44-7.5-8.44-11.85 0-27.22-.04-38.91-.04-6.94-.01-6.59-.17-6.59-9.35S.03 15.96.03 7.47C.03 4.49-.34.49 4.99.48 9.66.48 37.46 0 43.53 0 52.65 0 53 .49 53 8.46c0 7.02-1.69 38.21.9 41.84 1.11 1.57 3.68 2.22 5.54 2.43 8.76 1.01 37.05-2.12 42.43 1.51 2.53 1.71 3.08 5.07 3.08 7.87v88.54c-.02 5.37-2.52 9.68-8.48 9.45H8.48c-5.06 0-8.46-2.04-8.46-7.48.01-9.13-.02-28.88-.02-37.82 0-8.31-.35-8.42 7.52-8.42 7.14 0 38.42 1.8 42.19-1.26Z"/></svg>
