<svg fill="none" height="164" viewBox="0 0 160 164" width="160" xmlns="http://www.w3.org/2000/svg"><path d="m9.76366 3.00184-4.3171 2.82353v5.63853c0 .2961-.20913.5361-.46723.5361-.25809 0-.46806-.24-.46806-.5361v-5.64043l-4.276425-2.82258c-.2240706-.14761-.3012505-.47519-.1726173-.73231.1286333-.25616.4149453-.34473.6381863-.19712l4.279746 2.82353 4.32042-2.82449c.2249-.14665.51038-.05713.63818.19998.12784.25712.04897.58471-.1751.73136z" fill="#f0eee8"/><path d="m83.7637 3.00184-4.3171 2.82353v5.63853c0 .2961-.2092.5361-.4673.5361s-.468-.24-.468-.5361v-5.64043l-4.2765-2.82258c-.224-.14761-.3012-.47519-.1726-.73231.1287-.25616.415-.34473.6382-.19712l4.2798 2.82353 4.3204-2.82449c.2249-.14665.5104-.05713.6382.19998.1278.25712.0489.58471-.1751.73136z" fill="#f0eee8"/><path d="m157.764 3.00184-4.317 2.82353v5.63853c0 .2961-.21.5361-.468.5361s-.468-.24-.468-.5361v-5.64043l-4.276-2.82258c-.224-.14761-.301-.47519-.173-.73231.129-.25616.415-.34473.638-.19712l4.28 2.82353 4.321-2.82449c.224-.14665.51-.05713.638.19998.128.25712.049.58471-.175.73136z" fill="#6b6b6b"/><path d="m9.76366 79.0018-4.3171 2.8236v5.6385c0 .2961-.20913.5361-.46723.5361-.25809 0-.46806-.24-.46806-.5361v-5.6404l-4.276425-2.8226c-.2240706-.1476-.3012505-.4752-.1726173-.7323.1286333-.2562.4149453-.3447.6381863-.1971l4.279746 2.8235 4.32042-2.8245c.2249-.1466.51038-.0571.63818.2.12784.2571.04897.5847-.1751.7313z" fill="#f0eee8"/><g fill="#6b6b6b"><path d="m9.76366 155.002-4.3171 2.823v5.639c0 .296-.20913.536-.46723.536-.25809 0-.46806-.24-.46806-.536v-5.641l-4.276425-2.822c-.2240706-.148-.3012505-.475-.1726173-.732.1286333-.257.4149453-.345.6381863-.198l4.279746 2.824 4.32042-2.824c.2249-.147.51038-.058.63818.199.12784.258.04897.585-.1751.732z"/><path d="m83.7637 79.0018-4.3171 2.8236v5.6385c0 .2961-.2092.5361-.4673.5361s-.468-.24-.468-.5361v-5.6404l-4.2765-2.8226c-.224-.1476-.3012-.4752-.1726-.7323.1287-.2562.415-.3447.6382-.1971l4.2798 2.8235 4.3204-2.8245c.2249-.1466.5104-.0571.6382.2s.0489.5847-.1751.7313z"/><path d="m83.7637 155.002-4.3171 2.823v5.639c0 .296-.2092.536-.4673.536s-.468-.24-.468-.536v-5.641l-4.2765-2.822c-.224-.148-.3012-.475-.1726-.732.1287-.257.415-.345.6382-.198l4.2798 2.824 4.3204-2.824c.2249-.147.5104-.058.6382.199.1278.258.0489.585-.1751.732z"/><path d="m157.764 155.002-4.317 2.823v5.639c0 .296-.21.536-.468.536s-.468-.24-.468-.536v-5.641l-4.276-2.822c-.224-.148-.301-.475-.173-.732.129-.257.415-.345.638-.198l4.28 2.824 4.321-2.824c.224-.147.51-.058.638.199.128.258.049.585-.175.732z"/><path d="m157.764 79.0018-4.317 2.8236v5.6385c0 .2961-.21.5361-.468.5361s-.468-.24-.468-.5361v-5.6404l-4.276-2.8226c-.224-.1476-.301-.4752-.173-.7323.129-.2562.415-.3447.638-.1971l4.28 2.8235 4.321-2.8245c.224-.1466.51-.0571.638.2s.049.5847-.175.7313z"/></g></svg>